<svg width="40" height="40" viewBox="0 0 40 40" fill="none" xmlns="http://www.w3.org/2000/svg">
<circle cx="20" cy="20" r="20" fill="#D1E7FF"/>
<g clip-path="url(#clip0_402_51717)">
<path d="M25.5 11.5C25.5 11.2348 25.3946 10.9804 25.2071 10.7929C25.0196 10.6054 24.7652 10.5 24.5 10.5H20.052C19.7926 9.90697 19.3659 9.40242 18.8242 9.0481C18.2825 8.69379 17.6493 8.50508 17.002 8.50508C16.3547 8.50508 15.7215 8.69379 15.1798 9.0481C14.6381 9.40242 14.2114 9.90697 13.952 10.5H9.5C9.23478 10.5 8.98043 10.6054 8.79289 10.7929C8.60536 10.9804 8.5 11.2348 8.5 11.5V28.5C8.5 28.7652 8.60536 29.0196 8.79289 29.2071C8.98043 29.3947 9.23478 29.5 9.5 29.5H24.5C24.7652 29.5 25.0196 29.3947 25.2071 29.2071C25.3946 29.0196 25.5 28.7652 25.5 28.5V11.5Z" fill="white"/>
<path d="M22.5 13.5H11.5V26.5H22.5V13.5Z" fill="#F599C9"/>
<path d="M11.5 24.539L22.5 13.539V13.498H11.5V24.539Z" fill="white"/>
<path d="M22.5 17.5V13.5H11.5V26.5H16.5" stroke="#0058B7" stroke-linecap="round" stroke-linejoin="round"/>
<path d="M25.5 16.5V11.5C25.5 11.2348 25.3946 10.9804 25.2071 10.7929C25.0196 10.6054 24.7652 10.5 24.5 10.5H20.052C19.7926 9.90697 19.3659 9.40242 18.8242 9.0481C18.2825 8.69379 17.6493 8.50508 17.002 8.50508C16.3547 8.50508 15.7215 8.69379 15.1798 9.0481C14.6381 9.40242 14.2114 9.90697 13.952 10.5H9.5C9.23478 10.5 8.98043 10.6054 8.79289 10.7929C8.60536 10.9804 8.5 11.2348 8.5 11.5V28.5C8.5 28.7652 8.60536 29.0196 8.79289 29.2071C8.98043 29.3947 9.23478 29.5 9.5 29.5H17.5" stroke="#0058B7" stroke-linecap="round" stroke-linejoin="round"/>
<path d="M14.5 16.5H19.5" stroke="#0058B7" stroke-linecap="round" stroke-linejoin="round"/>
<path d="M14.5 19.5H19.5" stroke="#0058B7" stroke-linecap="round" stroke-linejoin="round"/>
<path d="M14.5 22.5H17.5" stroke="#0058B7" stroke-linecap="round" stroke-linejoin="round"/>
<path d="M25.5 31.487C26.6867 31.487 27.8467 31.1351 28.8334 30.4758C29.8201 29.8165 30.5892 28.8795 31.0433 27.7831C31.4974 26.6868 31.6162 25.4804 31.3847 24.3165C31.1532 23.1526 30.5818 22.0835 29.7426 21.2444C28.9035 20.4053 27.8344 19.8338 26.6705 19.6023C25.5067 19.3708 24.3003 19.4896 23.2039 19.9437C22.1075 20.3979 21.1705 21.1669 20.5112 22.1536C19.8519 23.1403 19.5 24.3003 19.5 25.487C19.5 27.0783 20.1321 28.6044 21.2574 29.7297C22.3826 30.8549 23.9087 31.487 25.5 31.487Z" fill="white"/>
<path d="M25.5001 19.486C24.2804 19.488 23.0902 19.8616 22.0883 20.5571C21.0863 21.2527 20.3201 22.2371 19.8918 23.3791C19.4635 24.5212 19.3935 25.7666 19.691 26.9495C19.9885 28.1324 20.6394 29.1965 21.5571 30L30.0151 21.542C29.4536 20.896 28.7599 20.3781 27.981 20.0234C27.202 19.6687 26.356 19.4854 25.5001 19.486Z" fill="#F599C9"/>
<path d="M25.5 31.487C26.6867 31.487 27.8467 31.1351 28.8334 30.4758C29.8201 29.8165 30.5892 28.8795 31.0433 27.7831C31.4974 26.6868 31.6162 25.4804 31.3847 24.3165C31.1532 23.1526 30.5818 22.0835 29.7426 21.2444C28.9035 20.4053 27.8344 19.8338 26.6705 19.6023C25.5067 19.3708 24.3003 19.4896 23.2039 19.9437C22.1075 20.3979 21.1705 21.1669 20.5112 22.1536C19.8519 23.1403 19.5 24.3003 19.5 25.487C19.5 27.0783 20.1321 28.6044 21.2574 29.7297C22.3826 30.8549 23.9087 31.487 25.5 31.487V31.487Z" stroke="#0058B7" stroke-linecap="round" stroke-linejoin="round"/>
<path d="M23.625 24.031C23.625 23.6602 23.735 23.2977 23.941 22.9893C24.147 22.681 24.4399 22.4406 24.7825 22.2987C25.1251 22.1568 25.5021 22.1197 25.8658 22.192C26.2295 22.2644 26.5636 22.443 26.8258 22.7052C27.088 22.9674 27.2666 23.3015 27.339 23.6652C27.4113 24.0289 27.3742 24.4059 27.2323 24.7485C27.0904 25.0911 26.85 25.384 26.5417 25.59C26.2334 25.796 25.8708 25.906 25.5 25.906V26.906" stroke="#0058B7" stroke-linecap="round" stroke-linejoin="round"/>
<path d="M25.5 28.906C25.5494 28.906 25.5978 28.9207 25.6389 28.9481C25.68 28.9756 25.712 29.0147 25.731 29.0603C25.7499 29.106 25.7548 29.1563 25.7452 29.2048C25.7355 29.2533 25.7117 29.2978 25.6768 29.3328C25.6418 29.3677 25.5973 29.3916 25.5488 29.4012C25.5003 29.4108 25.45 29.4059 25.4043 29.387C25.3586 29.3681 25.3196 29.336 25.2921 29.2949C25.2647 29.2538 25.25 29.2055 25.25 29.156C25.25 29.0897 25.2763 29.0261 25.3232 28.9792C25.3701 28.9323 25.4337 28.906 25.5 28.906Z" stroke="#0058B7" stroke-linecap="round" stroke-linejoin="round"/>
</g>
<defs>
<clipPath id="clip0_402_51717">
<rect width="24" height="24" fill="white" transform="translate(8 8)"/>
</clipPath>
</defs>
</svg>
