<svg width="40" height="40" viewBox="0 0 40 40" fill="none" xmlns="http://www.w3.org/2000/svg">
<circle cx="20" cy="20" r="20" fill="#D1E7FF"/>
<g clip-path="url(#clip0_402_51818)">
<path d="M27 28C27.2652 28 27.5196 27.8946 27.7071 27.7071C27.8946 27.5196 28 27.2652 28 27V19C28 18.7348 28.1054 18.4804 28.2929 18.2929C28.4804 18.1054 28.7348 18 29 18H30C30.2652 18 30.5196 18.1054 30.7071 18.2929C30.8946 18.4804 31 18.7348 31 19V30C31 30.2652 30.8946 30.5196 30.7071 30.7071C30.5196 30.8946 30.2652 31 30 31H18C17.7348 31 17.4804 30.8946 17.2929 30.7071C17.1054 30.5196 17 30.2652 17 30V29C17 28.7348 17.1054 28.4804 17.2929 28.2929C17.4804 28.1054 17.7348 28 18 28H27Z" fill="white"/>
<path d="M15 16C15 15.7348 15.1054 15.4804 15.2929 15.2929C15.4804 15.1054 15.7348 15 16 15H24C24.2652 15 24.5196 15.1054 24.7071 15.2929C24.8946 15.4804 25 15.7348 25 16V24C25 24.2652 24.8946 24.5196 24.7071 24.7071C24.5196 24.8946 24.2652 25 24 25H16C15.7348 25 15.4804 24.8946 15.2929 24.7071C15.1054 24.5196 15 24.2652 15 24V16Z" fill="#F599C9"/>
<path d="M13 12C12.7348 12 12.4804 12.1054 12.2929 12.2929C12.1054 12.4804 12 12.7348 12 13V21C12 21.2652 11.8946 21.5196 11.7071 21.7071C11.5196 21.8946 11.2652 22 11 22H10C9.73478 22 9.48043 21.8946 9.29289 21.7071C9.10536 21.5196 9 21.2652 9 21V10C9 9.73478 9.10536 9.48043 9.29289 9.29289C9.48043 9.10536 9.73478 9 10 9H22C22.2652 9 22.5196 9.10536 22.7071 9.29289C22.8946 9.48043 23 9.73478 23 10V11C23 11.2652 22.8946 11.5196 22.7071 11.7071C22.5196 11.8946 22.2652 12 22 12H13Z" fill="white"/>
<path d="M27 28C27.2652 28 27.5196 27.8946 27.7071 27.7071C27.8946 27.5196 28 27.2652 28 27V19C28 18.7348 28.1054 18.4804 28.2929 18.2929C28.4804 18.1054 28.7348 18 29 18H30C30.2652 18 30.5196 18.1054 30.7071 18.2929C30.8946 18.4804 31 18.7348 31 19V30C31 30.2652 30.8946 30.5196 30.7071 30.7071C30.5196 30.8946 30.2652 31 30 31H18C17.7348 31 17.4804 30.8946 17.2929 30.7071C17.1054 30.5196 17 30.2652 17 30V29C17 28.7348 17.1054 28.4804 17.2929 28.2929C17.4804 28.1054 17.7348 28 18 28H27Z" stroke="#0058B7" stroke-linecap="round" stroke-linejoin="round"/>
<path d="M15 16C15 15.7348 15.1054 15.4804 15.2929 15.2929C15.4804 15.1054 15.7348 15 16 15H24C24.2652 15 24.5196 15.1054 24.7071 15.2929C24.8946 15.4804 25 15.7348 25 16V24C25 24.2652 24.8946 24.5196 24.7071 24.7071C24.5196 24.8946 24.2652 25 24 25H16C15.7348 25 15.4804 24.8946 15.2929 24.7071C15.1054 24.5196 15 24.2652 15 24V16Z" stroke="#0058B7" stroke-linecap="round" stroke-linejoin="round"/>
<path d="M13 12C12.7348 12 12.4804 12.1054 12.2929 12.2929C12.1054 12.4804 12 12.7348 12 13V21C12 21.2652 11.8946 21.5196 11.7071 21.7071C11.5196 21.8946 11.2652 22 11 22H10C9.73478 22 9.48043 21.8946 9.29289 21.7071C9.10536 21.5196 9 21.2652 9 21V10C9 9.73478 9.10536 9.48043 9.29289 9.29289C9.48043 9.10536 9.73478 9 10 9H22C22.2652 9 22.5196 9.10536 22.7071 9.29289C22.8946 9.48043 23 9.73478 23 10V11C23 11.2652 22.8946 11.5196 22.7071 11.7071C22.5196 11.8946 22.2652 12 22 12H13Z" stroke="#0058B7" stroke-linecap="round" stroke-linejoin="round"/>
</g>
<defs>
<clipPath id="clip0_402_51818">
<rect width="24" height="24" fill="white" transform="translate(8 8)"/>
</clipPath>
</defs>
</svg>
