<svg width="40" height="40" viewBox="0 0 40 40" fill="none" xmlns="http://www.w3.org/2000/svg">
<circle cx="20" cy="20" r="20" fill="#D1E7FF"/>
<path d="M24.3432 22.257C23.786 21.6997 23.1246 21.2577 22.3965 20.9561C21.6685 20.6545 20.8882 20.4993 20.1002 20.4993C19.3122 20.4993 18.5319 20.6545 17.8039 20.9561C17.0758 21.2577 16.4144 21.6997 15.8572 22.257L10.2002 14.6C11.5002 13.2998 13.0436 12.2685 14.7423 11.5648C16.4409 10.8611 18.2616 10.499 20.1002 10.499C21.9388 10.499 23.7594 10.8611 25.4581 11.5648C27.1567 12.2685 28.7002 13.2998 30.0002 14.6L24.3432 22.257Z" fill="#F599C9"/>
<path d="M13.0303 18.43C14.9056 16.5547 17.4491 15.5011 20.1013 15.5011C22.7534 15.5011 25.2969 16.5547 27.1723 18.43" stroke="#0058B7" stroke-linecap="round" stroke-linejoin="round"/>
<path d="M30.0002 14.6C28.7002 13.2998 27.1567 12.2685 25.4581 11.5648C23.7594 10.8611 21.9388 10.499 20.1002 10.499C18.2616 10.499 16.4409 10.8611 14.7423 11.5648C13.0436 12.2685 11.5002 13.2998 10.2002 14.6" stroke="#0058B7" stroke-linecap="round" stroke-linejoin="round"/>
<path d="M15.8574 22.257C16.4146 21.6997 17.0761 21.2577 17.8041 20.9561C18.5321 20.6545 19.3124 20.4993 20.1004 20.4993C20.8884 20.4993 21.6687 20.6545 22.3968 20.9561C23.1248 21.2577 23.7863 21.6997 24.3434 22.257" stroke="#0058B7" stroke-linecap="round" stroke-linejoin="round"/>
<path d="M27.1723 18.43C25.2969 16.5547 22.7534 15.5011 20.1013 15.5011C17.4491 15.5011 14.9056 16.5547 13.0303 18.43" stroke="#0058B7" stroke-linecap="round" stroke-linejoin="round"/>
<path d="M24.3444 22.257C23.7872 21.6997 23.1258 21.2577 22.3977 20.9561C21.6697 20.6545 20.8894 20.4993 20.1014 20.4993C19.3134 20.4993 18.5331 20.6545 17.8051 20.9561C17.077 21.2577 16.4156 21.6997 15.8584 22.257" stroke="#0058B7" stroke-linecap="round" stroke-linejoin="round"/>
<path d="M20.1001 29.5C21.2047 29.5 22.1001 28.6046 22.1001 27.5C22.1001 26.3954 21.2047 25.5 20.1001 25.5C18.9955 25.5 18.1001 26.3954 18.1001 27.5C18.1001 28.6046 18.9955 29.5 20.1001 29.5Z" fill="white" stroke="#0058B7" stroke-linecap="round" stroke-linejoin="round"/>
</svg>
