<svg width="37" height="37" viewBox="0 0 37 37" fill="none" xmlns="http://www.w3.org/2000/svg">
<g clip-path="url(#clip0_570_9735)">
<path d="M0.770508 18.5C0.770508 20.8282 1.22909 23.1337 2.12006 25.2847C3.01103 27.4357 4.31696 29.3901 5.96326 31.0364C7.60957 32.6827 9.56402 33.9886 11.715 34.8796C13.866 35.7706 16.1714 36.2292 18.4997 36.2292C20.8279 36.2292 23.1333 35.7706 25.2843 34.8796C27.4353 33.9886 29.3898 32.6827 31.0361 31.0364C32.6824 29.3901 33.9883 27.4357 34.8793 25.2847C35.7703 23.1337 36.2288 20.8282 36.2288 18.5C36.2288 16.1718 35.7703 13.8663 34.8793 11.7153C33.9883 9.56434 32.6824 7.60989 31.0361 5.96358C29.3898 4.31728 27.4353 3.01135 25.2843 2.12038C23.1333 1.22941 20.8279 0.770828 18.4997 0.770828C16.1714 0.770828 13.866 1.22941 11.715 2.12038C9.56402 3.01135 7.60957 4.31728 5.96326 5.96358C4.31696 7.60989 3.01103 9.56434 2.12006 11.7153C1.22909 13.8663 0.770508 16.1718 0.770508 18.5V18.5Z" fill="#F3D54E" stroke="#1C355E" stroke-linecap="round" stroke-linejoin="round"/>
<path d="M15.5 26.9726C16.4826 28.832 17.5 23 18.5 23C19.5 23 20.5 27.5 21.5 27.5C22.5 27.5 23.6562 23 24.5 23C25.3438 23 26 24.9726 27 26.9726" stroke="#1C355E" stroke-linecap="round" stroke-linejoin="round"/>
<path d="M10.5566 10.7135C11.4828 11.5052 14.7652 13.6422 14.748 14.5439C14.7308 15.4455 12.5096 14.8671 10.4499 14.8835" stroke="#1C355E" stroke-linecap="round" stroke-linejoin="round"/>
<path d="M26.7241 10.7135C25.7979 11.5052 22.5156 13.6422 22.5328 14.5439C22.55 15.4455 24.7711 14.8671 26.8309 14.8835" stroke="#1C355E" stroke-linecap="round" stroke-linejoin="round"/>
<path d="M4.99996 36C2.32758 34.9311 1.49976 34.6863 4.5 32.1863C3.26752 32.1818 2.32025 31.8202 2.00009 31.5C1.33862 30.8385 2.22901 29.2931 2.5 28.5C2.84354 27.4946 0.720541 25.7795 1.00005 25.5C1.50005 25 3.50024 24 6.50024 24C10.5314 24 12.5 19 15 18.5C19.4397 17.6121 15.1094 27.5586 14 29.5C12 33 7.99991 37.2 4.99996 36Z" fill="white"/>
<path d="M4.5 32.1863C1.49976 34.6863 2.32758 34.9311 4.99996 36C7.99991 37.2 12 33 14 29.5C15.1094 27.5586 19.4397 17.6121 15 18.5C12.5 19 10.5314 24 6.50024 24C3.50024 24 1.50005 25 1.00005 25.5C0.720541 25.7795 2.84354 27.4946 2.5 28.5C2.22901 29.2931 1.33862 30.8385 2.00009 31.5C2.66156 32.1615 5.99996 33 8.99996 30.5C11.4 28.5 12 27.3333 12 27" stroke="#1C355E" stroke-linecap="round"/>
</g>
<defs>
<clipPath id="clip0_570_9735">
<rect width="37" height="37" fill="white"/>
</clipPath>
</defs>
</svg>
