<svg width="40" height="40" viewBox="0 0 40 40" fill="none" xmlns="http://www.w3.org/2000/svg">
<circle cx="20" cy="20" r="20" fill="#D1E7FF"/>
<g clip-path="url(#clip0_402_51780)">
<path d="M28 19C29.5188 19 30.75 17.7688 30.75 16.25C30.75 14.7312 29.5188 13.5 28 13.5C26.4812 13.5 25.25 14.7312 25.25 16.25C25.25 17.7688 26.4812 19 28 19Z" fill="#F599C9"/>
<path d="M31.5 23.5C31.5 22.5717 31.1313 21.6815 30.4749 21.0251C29.8185 20.3687 28.9283 20 28 20C27.0717 20 26.1815 20.3687 25.5251 21.0251C24.8687 21.6815 24.5 22.5717 24.5 23.5V26.5H26.083L26.5 31.5H29.5L29.917 26.5H31.5V23.5Z" fill="#F599C9"/>
<path d="M28 15.736C28.531 15.7366 29.0505 15.8911 29.4956 16.1807C29.9407 16.4703 30.2923 16.8827 30.508 17.368C30.6964 16.9492 30.7769 16.4899 30.7421 16.032C30.7074 15.5741 30.5586 15.1322 30.3092 14.7466C30.0598 14.361 29.7178 14.044 29.3145 13.8245C28.9111 13.605 28.4592 13.49 28 13.49C27.5408 13.49 27.0889 13.605 26.6855 13.8245C26.2822 14.044 25.9402 14.361 25.6908 14.7466C25.4415 15.1322 25.2926 15.5741 25.2579 16.032C25.2231 16.4899 25.3036 16.9492 25.492 17.368C25.7077 16.8827 26.0593 16.4703 26.5044 16.1807C26.9495 15.8911 27.469 15.7366 28 15.736Z" fill="white"/>
<path d="M28 20C27.0717 20 26.1815 20.3687 25.5251 21.0251C24.8687 21.6815 24.5 22.5717 24.5 23.5V25.736C24.5 24.8077 24.8687 23.9175 25.5251 23.2611C26.1815 22.6047 27.0717 22.236 28 22.236C28.9283 22.236 29.8185 22.6047 30.4749 23.2611C31.1313 23.9175 31.5 24.8077 31.5 25.736V23.5C31.5 22.5717 31.1313 21.6815 30.4749 21.0251C29.8185 20.3687 28.9283 20 28 20Z" fill="white"/>
<path d="M28 19C29.5188 19 30.75 17.7688 30.75 16.25C30.75 14.7312 29.5188 13.5 28 13.5C26.4812 13.5 25.25 14.7312 25.25 16.25C25.25 17.7688 26.4812 19 28 19Z" stroke="#0058B7" stroke-linecap="round" stroke-linejoin="round"/>
<path d="M31.5 23.5C31.5 22.5717 31.1313 21.6815 30.4749 21.0251C29.8185 20.3687 28.9283 20 28 20C27.0717 20 26.1815 20.3687 25.5251 21.0251C24.8687 21.6815 24.5 22.5717 24.5 23.5V26.5H26.083L26.5 31.5H29.5L29.917 26.5H31.5V23.5Z" stroke="#0058B7" stroke-linecap="round" stroke-linejoin="round"/>
<path d="M20 13C21.2426 13 22.25 11.9926 22.25 10.75C22.25 9.50736 21.2426 8.5 20 8.5C18.7574 8.5 17.75 9.50736 17.75 10.75C17.75 11.9926 18.7574 13 20 13Z" fill="#F599C9"/>
<path d="M20 14C19.2044 14 18.4413 14.3161 17.8787 14.8787C17.3161 15.4413 17 16.2044 17 17V19.5H18.5L19 24H21L21.5 19.5H23V17C23 16.2044 22.6839 15.4413 22.1213 14.8787C21.5587 14.3161 20.7956 14 20 14Z" fill="#F599C9"/>
<path d="M20 10.736C20.3946 10.7369 20.7819 10.8421 21.1228 11.0409C21.4636 11.2397 21.7459 11.525 21.941 11.868C22.1411 11.5292 22.2477 11.1434 22.25 10.75C22.25 10.1533 22.0129 9.58097 21.591 9.15901C21.169 8.73705 20.5967 8.5 20 8.5C19.4033 8.5 18.831 8.73705 18.409 9.15901C17.9871 9.58097 17.75 10.1533 17.75 10.75C17.7523 11.1434 17.8589 11.5292 18.059 11.868C18.2541 11.525 18.5364 11.2397 18.8772 11.0409C19.2181 10.8421 19.6054 10.7369 20 10.736Z" fill="white"/>
<path d="M20 14C19.2044 14 18.4413 14.3161 17.8787 14.8787C17.3161 15.4413 17 16.2044 17 17V19.236C17 18.4404 17.3161 17.6773 17.8787 17.1147C18.4413 16.5521 19.2044 16.236 20 16.236C20.7956 16.236 21.5587 16.5521 22.1213 17.1147C22.6839 17.6773 23 18.4404 23 19.236V17C23 16.2044 22.6839 15.4413 22.1213 14.8787C21.5587 14.3161 20.7956 14 20 14Z" fill="white"/>
<path d="M20 13C21.2426 13 22.25 11.9926 22.25 10.75C22.25 9.50736 21.2426 8.5 20 8.5C18.7574 8.5 17.75 9.50736 17.75 10.75C17.75 11.9926 18.7574 13 20 13Z" stroke="#0058B7" stroke-linecap="round" stroke-linejoin="round"/>
<path d="M20 14C19.2044 14 18.4413 14.3161 17.8787 14.8787C17.3161 15.4413 17 16.2044 17 17V19.5H18.5L19 24H21L21.5 19.5H23V17C23 16.2044 22.6839 15.4413 22.1213 14.8787C21.5587 14.3161 20.7956 14 20 14Z" stroke="#0058B7" stroke-linecap="round" stroke-linejoin="round"/>
<path d="M12 19C13.5188 19 14.75 17.7688 14.75 16.25C14.75 14.7312 13.5188 13.5 12 13.5C10.4812 13.5 9.25 14.7312 9.25 16.25C9.25 17.7688 10.4812 19 12 19Z" fill="#F599C9"/>
<path d="M15.5 23.5C15.5 22.5717 15.1313 21.6815 14.4749 21.0251C13.8185 20.3687 12.9283 20 12 20C11.0717 20 10.1815 20.3687 9.52513 21.0251C8.86875 21.6815 8.5 22.5717 8.5 23.5V26.5H10.083L10.5 31.5H13.5L13.917 26.5H15.5V23.5Z" fill="#F599C9"/>
<path d="M12 15.736C12.531 15.7366 13.0505 15.8911 13.4956 16.1807C13.9407 16.4703 14.2923 16.8827 14.508 17.368C14.6747 16.994 14.7557 16.5875 14.7451 16.1782C14.7345 15.7689 14.6326 15.3672 14.4468 15.0023C14.261 14.6375 13.996 14.3187 13.6712 14.0694C13.3464 13.8201 12.97 13.6466 12.5695 13.5614C12.169 13.4763 11.7546 13.4817 11.3565 13.5773C10.9583 13.6729 10.5866 13.8562 10.2684 14.1139C9.95027 14.3716 9.69371 14.6971 9.5175 15.0667C9.3413 15.4363 9.2499 15.8406 9.25 16.25C9.25078 16.6356 9.33326 17.0166 9.492 17.368C9.70766 16.8827 10.0593 16.4703 10.5044 16.1807C10.9495 15.8911 11.469 15.7366 12 15.736Z" fill="white"/>
<path d="M12 20C11.0717 20 10.1815 20.3687 9.52513 21.0251C8.86875 21.6815 8.5 22.5717 8.5 23.5V25.736C8.5 24.8077 8.86875 23.9175 9.52513 23.2611C10.1815 22.6047 11.0717 22.236 12 22.236C12.9283 22.236 13.8185 22.6047 14.4749 23.2611C15.1313 23.9175 15.5 24.8077 15.5 25.736V23.5C15.5 22.5717 15.1313 21.6815 14.4749 21.0251C13.8185 20.3687 12.9283 20 12 20Z" fill="white"/>
<path d="M12 19C13.5188 19 14.75 17.7688 14.75 16.25C14.75 14.7312 13.5188 13.5 12 13.5C10.4812 13.5 9.25 14.7312 9.25 16.25C9.25 17.7688 10.4812 19 12 19Z" stroke="#0058B7" stroke-linecap="round" stroke-linejoin="round"/>
<path d="M15.5 23.5C15.5 22.5717 15.1313 21.6815 14.4749 21.0251C13.8185 20.3687 12.9283 20 12 20C11.0717 20 10.1815 20.3687 9.52513 21.0251C8.86875 21.6815 8.5 22.5717 8.5 23.5V26.5H10.083L10.5 31.5H13.5L13.917 26.5H15.5V23.5Z" stroke="#0058B7" stroke-linecap="round" stroke-linejoin="round"/>
</g>
<defs>
<clipPath id="clip0_402_51780">
<rect width="24" height="24" fill="white" transform="translate(8 8)"/>
</clipPath>
</defs>
</svg>
