<svg width="40" height="40" viewBox="0 0 40 40" fill="none" xmlns="http://www.w3.org/2000/svg">
<circle cx="20" cy="20" r="20" fill="#D1E7FF"/>
<g clip-path="url(#clip0_402_51758)">
<path d="M20 29.5V25.5" stroke="#0058B7" stroke-linecap="round" stroke-linejoin="round"/>
<path d="M26 23.5C26.5585 23.4806 27.0952 23.2781 27.5274 22.9238C27.9596 22.5694 28.2634 22.0829 28.392 21.539L29 18.5" stroke="#0058B7" stroke-linecap="round" stroke-linejoin="round"/>
<path d="M14 23.5C13.4415 23.4806 12.9048 23.2781 12.4726 22.9238C12.0404 22.5694 11.7366 22.0829 11.608 21.539L11 18.5" stroke="#0058B7" stroke-linecap="round" stroke-linejoin="round"/>
<path d="M26 13.5C26 15 23.5 21.79 23.5 21.79C22.3471 21.5682 21.1737 21.471 20 21.5C18.8263 21.471 17.6529 21.5682 16.5 21.79C16.5 21.79 14 15 14 13.5C14 11 16.322 8.79 18.952 8.55C19.282 8.52 19.632 8.5 20.002 8.5C20.372 8.5 20.712 8.52 21.042 8.55C23.682 8.79 26 11 26 13.5Z" fill="white"/>
<path d="M18.952 12.26C19.282 12.23 19.632 12.21 20.002 12.21C20.372 12.21 20.712 12.23 21.042 12.26C22.0123 12.3536 22.9421 12.6955 23.7418 13.2529C24.5416 13.8102 25.1843 14.5641 25.608 15.442C25.8078 14.8106 25.9393 14.1595 26 13.5C26 11 23.682 8.79 21.042 8.55C20.712 8.52 20.362 8.5 20 8.5C19.638 8.5 19.28 8.52 18.95 8.55C16.322 8.79 14 11 14 13.5C14.0631 14.1598 14.1972 14.8109 14.4 15.442C14.8219 14.5655 15.4622 13.8124 16.2595 13.2551C17.0567 12.6978 17.984 12.3551 18.952 12.26Z" fill="#F599C9"/>
<path d="M26 13.5C26 15 23.5 21.79 23.5 21.79C22.3471 21.5682 21.1737 21.471 20 21.5C18.8263 21.471 17.6529 21.5682 16.5 21.79C16.5 21.79 14 15 14 13.5C14 11 16.322 8.79 18.952 8.55C19.282 8.52 19.632 8.5 20.002 8.5C20.372 8.5 20.712 8.52 21.042 8.55C23.682 8.79 26 11 26 13.5Z" stroke="#0058B7" stroke-linecap="round" stroke-linejoin="round"/>
<path d="M20 31.5C20.1978 31.5 20.3911 31.4414 20.5556 31.3315C20.72 31.2216 20.8482 31.0654 20.9239 30.8827C20.9996 30.7 21.0194 30.4989 20.9808 30.3049C20.9422 30.1109 20.847 29.9327 20.7071 29.7929C20.5673 29.653 20.3891 29.5578 20.1951 29.5192C20.0011 29.4806 19.8 29.5004 19.6173 29.5761C19.4346 29.6518 19.2784 29.78 19.1685 29.9444C19.0586 30.1089 19 30.3022 19 30.5C19 30.7652 19.1054 31.0196 19.2929 31.2071C19.4804 31.3946 19.7348 31.5 20 31.5Z" fill="white" stroke="#0058B7" stroke-linecap="round" stroke-linejoin="round"/>
<path d="M25 31.5C25.1978 31.5 25.3911 31.4414 25.5556 31.3315C25.72 31.2216 25.8482 31.0654 25.9239 30.8827C25.9996 30.7 26.0194 30.4989 25.9808 30.3049C25.9422 30.1109 25.847 29.9327 25.7071 29.7929C25.5673 29.653 25.3891 29.5578 25.1951 29.5192C25.0011 29.4806 24.8 29.5004 24.6173 29.5761C24.4346 29.6518 24.2784 29.78 24.1685 29.9444C24.0586 30.1089 24 30.3022 24 30.5C24 30.7652 24.1054 31.0196 24.2929 31.2071C24.4804 31.3946 24.7348 31.5 25 31.5Z" fill="white" stroke="#0058B7" stroke-linecap="round" stroke-linejoin="round"/>
<path d="M15 31.5C15.1978 31.5 15.3911 31.4414 15.5556 31.3315C15.72 31.2216 15.8482 31.0654 15.9239 30.8827C15.9996 30.7 16.0194 30.4989 15.9808 30.3049C15.9422 30.1109 15.847 29.9327 15.7071 29.7929C15.5673 29.653 15.3891 29.5578 15.1951 29.5192C15.0011 29.4806 14.8 29.5004 14.6173 29.5761C14.4346 29.6518 14.2784 29.78 14.1685 29.9444C14.0586 30.1089 14 30.3022 14 30.5C14 30.7652 14.1054 31.0196 14.2929 31.2071C14.4804 31.3946 14.7348 31.5 15 31.5Z" fill="white" stroke="#0058B7" stroke-linecap="round" stroke-linejoin="round"/>
<path d="M15 29.5C15.6328 28.8165 16.4098 28.2825 17.2746 27.9366C18.1394 27.5906 19.0704 27.4415 20 27.5C20.9296 27.4417 21.8605 27.5909 22.7253 27.9369C23.59 28.2828 24.367 28.8167 25 29.5" stroke="#0058B7" stroke-linecap="round" stroke-linejoin="round"/>
<path d="M13 18C13 18.1326 12.9473 18.2598 12.8536 18.3536C12.7598 18.4473 12.6326 18.5 12.5 18.5H9.5C9.36739 18.5 9.24021 18.4473 9.14645 18.3536C9.05268 18.2598 9 18.1326 9 18C9 17.4696 9.21071 16.9609 9.58579 16.5858C9.96086 16.2107 10.4696 16 11 16C11.5304 16 12.0391 16.2107 12.4142 16.5858C12.7893 16.9609 13 17.4696 13 18Z" fill="white" stroke="#0058B7" stroke-linecap="round" stroke-linejoin="round"/>
<path d="M31 18C31 18.1326 30.9473 18.2598 30.8536 18.3536C30.7598 18.4473 30.6326 18.5 30.5 18.5H27.5C27.3674 18.5 27.2402 18.4473 27.1464 18.3536C27.0527 18.2598 27 18.1326 27 18C27 17.4696 27.2107 16.9609 27.5858 16.5858C27.9609 16.2107 28.4696 16 29 16C29.5304 16 30.0391 16.2107 30.4142 16.5858C30.7893 16.9609 31 17.4696 31 18Z" fill="white" stroke="#0058B7" stroke-linecap="round" stroke-linejoin="round"/>
<path d="M26 23.18V24.5C26 24.7652 25.8946 25.0196 25.7071 25.2071C25.5196 25.3946 25.2652 25.5 25 25.5H15C14.7348 25.5 14.4804 25.3946 14.2929 25.2071C14.1054 25.0196 14 24.7652 14 24.5V23.18C13.9995 22.9704 14.0648 22.7658 14.1868 22.5954C14.3089 22.4249 14.4814 22.2971 14.68 22.23C15.2779 22.0492 15.8855 21.9023 16.5 21.79C17.6529 21.5682 18.8263 21.471 20 21.5C21.7972 21.4655 23.5888 21.7118 25.31 22.23C25.5098 22.2966 25.6837 22.4239 25.8074 22.5943C25.9311 22.7647 25.9985 22.9695 26 23.18Z" fill="white" stroke="#0058B7" stroke-linecap="round" stroke-linejoin="round"/>
</g>
<defs>
<clipPath id="clip0_402_51758">
<rect width="24" height="24" fill="white" transform="translate(8 8)"/>
</clipPath>
</defs>
</svg>
